<svg xmlns="http://www.w3.org/2000/svg" xmlns:xlink="http://www.w3.org/1999/xlink" width="392" height="372" viewBox="0 0 392 372">
  <defs>
    <clipPath id="clip-path">
      <rect id="Rectangle_6686" data-name="Rectangle 6686" width="392" height="372" transform="translate(448)" fill="#fff"/>
    </clipPath>
  </defs>
  <g id="Mask_Group_32" data-name="Mask Group 32" transform="translate(-448)" clip-path="url(#clip-path)">
    <g id="Group_9366" data-name="Group 9366" transform="translate(503.197 -315.563)" style="mix-blend-mode: multiply;isolation: isolate">
      <path id="Path_15025" data-name="Path 15025" d="M215.695,340.934c-.2,1.5-1.135,3.579-.481,4.407,4.74,6.016,4.592,12.692,2.831,18.9,2.811,3.629,5.474,6.366,7.269,9.588,1.636,2.939,2.33,6.4,3.609,10.134,3.653-.677,6.652-.98,9.494-1.818,4.027-1.188,7.9-2.885,11.9-4.161,5.538-1.764,9.026,1.613,7.619,7.319a15.305,15.305,0,0,1-1.629,4.269c-5.383,8.844-6.787,18.671-6.582,28.694a84.917,84.917,0,0,1-3.239,24.927c-4.144,14.7-6.245,29.886-11.214,44.419-6.073,17.759-12.053,35.612-20.631,52.257-12.655,24.55-27.822,47.571-48.853,65.979A167.67,167.67,0,0,1,115.857,635.8c-19.883,7.76-40.231,8.2-60.936,4.08C33.6,635.64,13.979,627.536-3.46,614.5a78.166,78.166,0,0,1-24.6-29.731c-2.9-6.232-5.673-12.544-8.1-18.974-3.121-8.272-5.043-16.82-4.589-25.782.2-3.811.2-7.642.057-11.457a112,112,0,0,1,8.716-48.116c4.292-10.208,8.558-20.368,15.271-29.354,6.387-8.548,12.13-17.577,18.53-26.112a169.663,169.663,0,0,1,31.909-32.407A218.266,218.266,0,0,1,80.932,364.72c22.462-9.79,45.769-16.278,70.605-17.779,19.311-1.168,39-1.986,57.29-9.935.549-.239,1.38.165,2.081.269-.269,1.249-.539,2.5-.97,4.495l5.942-.451Zm-8.672,28.94c.545-4.942.993-9.016,1.468-13.315-2.4-.421-4.542-.263-6.057-1.161-4.717-2.8-9.305-1.932-14.291-.9a205.042,205.042,0,0,1-21.557,3.077c-29.94,2.963-58.748,10.1-85.886,23.263a219.158,219.158,0,0,0-40.77,25.324,162.037,162.037,0,0,0-29.761,31.549,263.054,263.054,0,0,0-29.206,50.469c-6.3,14.44-10.632,29.428-11.3,45.308-.518,12.433,1.013,24.415,7.114,35.542a112.829,112.829,0,0,1,5.966,12.4c3.215,8.056,8.646,14.258,15.1,19.863,16.661,14.473,36.427,22.119,57.64,26.67a96.39,96.39,0,0,0,61.593-6.865,154.134,154.134,0,0,0,42.447-28.677,193.986,193.986,0,0,0,26.408-31.619,215.126,215.126,0,0,0,17.257-30.993c5.616-12.116,10.036-24.8,14.864-37.269,2.757-7.127,5.727-14.211,7.831-21.536,3.69-12.827,6.8-25.825,10.123-38.76a75.507,75.507,0,0,0,2.047-8.925,107.259,107.259,0,0,1,7.962-29.771c.209-.475-.286-1.263-.636-2.613-4.323.852-8.686,1.889-13.11,2.535-4.818.7-8.228-1.118-10.426-5.323a14.2,14.2,0,0,1-1.333-4.316c-.724-4.582-3.235-7.5-7.484-9.366C211.012,373.587,209.416,371.756,207.022,369.874Z" transform="translate(0 77.217)" fill="#b33f4c"/>
      <path id="Path_15026" data-name="Path 15026" d="M123.42,351.374c-8.831,9.891-16.449,18.426-23.711,26.563.232,1.529.084,2.535.492,2.879,1.65,1.38,4.481,2.259,2.057,5.09-.966,1.131-1.7.707-6.02-2.784-3.777,2.239-6.346,6.006-9.42,9.174-2.114,2.182-3.888,4.693-6,6.881-2.767,2.868-5.057,5.552-2.932,10.043.569,1.2-.946,3.383-1.717,5.767-2.185-2.155-3.771-3.717-5.717-5.632l-6.6,3.181c-.05,1.222-.377,2.124-.061,2.626,2.212,3.488,2.959,6.807-.747,10.487-1.71-1.65-3.215-3.1-4.713-4.545-.286.215-.727.374-.788.623-.512,2.094.431,4.939-2.384,5.885-3.73,1.256-3.818-2.71-5.535-4.316-4.784.6-2.394,6.1-6.013,8.2-7.511-1.9-2.437-9.043-4.973-12.884,15.588-12.349,31.875-23.466,44.621-38.891,8.228-9.959,17.712-18.884,26.633-28.273,1.3-1.37,2.6-2.741,4.047-4.269-.189-5.05-.471-9.989-.535-14.931-.091-6.949.616-13.76,4.333-19.893,3.232-5.329,7.861-8.11,14.2-8.053a13.37,13.37,0,0,1,11.665,6.067c3.3,4.814,5.131,10.076,4.36,15.577,3.336,1.613,5-.421,6.979-1.256,9.026-3.787,16.17-1.781,22.119,5.989,6.679,8.726,11.117,18.065,10.346,29.512-.495,7.312-2.841,13.621-8.487,18.086-10.548,8.343-22.031,13.857-36.047,9.231a82.664,82.664,0,0,0-8.336-1.795c-7.178,7.323-14.308,14.719-21.573,21.981-8.093,8.1-16.348,16.035-24.462,24.115-5.882,5.854-11.649,11.823-17.449,17.725-2.5-1.087-1.232-2.606-.4-3.633,9.383-11.564,18.6-23.273,28.361-34.518,7.5-8.649,15.823-16.587,23.553-25.048a76,76,0,0,0,7.306-10.123c2.549-3.936,3.693-4.521,8.514-3.215,2.212.6,4.393,1.32,6.572,2.044,12.123,4.033,21.526-1.781,30.441-8.713,1.579-1.229,2.441-3.855,2.875-5.989,1.922-9.4-1.589-17.234-7.551-24.253-2.865-3.38-6.727-3.639-10.48-2.673-5.151,1.323-10.443,2.639-14.416,6.625-3.208,3.215-6.08,1.933-9.639-1.1.889-3.686,1.939-7.676,2.781-11.706.461-2.2,1.188-4.629.67-6.673a9.349,9.349,0,0,0-3.831-5.249,6.05,6.05,0,0,0-7.427.932c-3.138,2.919-5.9,6.265-6.3,10.635a94.261,94.261,0,0,0-.047,13.652C122.245,344.3,122.976,348.041,123.42,351.374Z" transform="translate(188.045 0)" fill="#b33f4c"/>
      <path id="Path_15027" data-name="Path 15027" d="M75.09,328.784c-5.754-2.794-5.393-7.127-6.164-10.979,4.545-1.619,5.787-1.384,6.292,1.161a35.81,35.81,0,0,1,.653,5.582A23.7,23.7,0,0,1,75.09,328.784Z" transform="translate(259.709 29.528)" fill="#b33f4c"/>
      <path id="Path_15028" data-name="Path 15028" d="M74.678,324.165c-.808-1.6-1.986-3.141-2.289-4.838a4.445,4.445,0,0,1,1.441-3.6c1.289-1,4.343.539,4.37,2.229.03,2.013-.724,4.037-1.141,6.057C76.263,324.061,75.472,324.114,74.678,324.165Z" transform="translate(267.825 26.283)" fill="#b33f4c"/>
      <path id="Path_15029" data-name="Path 15029" d="M45.245,334.816c-2.188,2.047-3.734,3.495-5.279,4.939-.556-.549-1.485-1.071-1.441-1.488.286-2.616,2.471-3.262,4.535-3.929C43.356,334.244,43.753,334.476,45.245,334.816Z" transform="translate(187.758 71.03)" fill="#b33f4c"/>
      <path id="Path_15030" data-name="Path 15030" d="M35.559,340.362q1.838-1.515,3.68-3.027l.717,1.232c-1.522.471-3.047.946-4.575,1.414Z" transform="translate(180.32 78.173)" fill="#b33f4c"/>
      <path id="Path_15031" data-name="Path 15031" d="M75.457,317.3c.165-.168.387-.5.478-.471a2.674,2.674,0,0,1,.687.518l-.495.559Z" transform="translate(275.166 29.637)" fill="#b33f4c"/>
      <path id="Path_15033" data-name="Path 15033" d="M12.652,368.008c-2.256-3.713-9.494-3.865-6.134-10.925,7.962,3.34,15.51,6.508,23.058,9.672-2,4.838-2,4.838-10.8,3.589-1.316,1.727-2.66,3.491-4.141,5.437-9.437.969-17.793-2.926-26.351-5.75A4.525,4.525,0,0,1-14,367.664a4.895,4.895,0,0,1-.013-3.1,2.124,2.124,0,0,1,1.734-1.148c4.06.869,8.144,1.72,12.1,2.966C3.791,367.637,7.6,369.5,12.652,368.008Z" transform="translate(62.836 124.909)" fill="#b33f4c"/>
      <path id="Path_15034" data-name="Path 15034" d="M1.228,381.482c-7.976,1.741-15.88,2.683-23.91,1.249-2.289-.407-4.535-1.165-4.774-4-.2-2.4,2.4-4.666,5.568-4.511,6.844.33,13.679.855,20.506,1.441C1.4,375.9,2.784,377.395,1.228,381.482Z" transform="translate(31.584 165.456)" fill="#b33f4c"/>
      <path id="Path_15035" data-name="Path 15035" d="M-29.149,383.232c.468-.293,1.646-1.6,2.953-1.741,7.582-.808,15.187-1.444,22.8-1.825.976-.047,2.734,1.646,2.889,2.713.165,1.148-.869,3.34-1.828,3.643-8.026,2.529-16.231,4.252-24.735,3.373C-29.361,389.161-30.812,385.986-29.149,383.232Z" transform="translate(25.904 178.354)" fill="#b33f4c"/>
      <path id="Path_15036" data-name="Path 15036" d="M7.458,372.964c-1.363,1.575-2.134,3.346-3.336,3.713-7.7,2.34-15.544,3.458-23.476,1.064-1.054-.32-2.468-.875-2.828-1.707-.508-1.168-.757-3.188-.094-3.963,1.131-1.306,3.367-3.01,4.6-2.656,7.467,2.118,15.066.589,22.543,1.391C5.469,370.87,5.987,371.7,7.458,372.964Z" transform="translate(42.918 153.983)" fill="#b33f4c"/>
      <path id="Path_15037" data-name="Path 15037" d="M-5.88,386.129c-1.087,2.064-1.438,3.983-2.434,4.417-6.275,2.734-12.7,5.117-19.7,5.141a9.891,9.891,0,0,1-1.128-.135c-2.512-.293-4.791-2.427-4.131-4.468.518-1.6,1.875-3.582,3.313-4.074,2.448-.835,5.255-.586,7.9-.882,3.4-.38,6.777-1.037,10.184-1.205C-10.176,384.842-8.436,385.583-5.88,386.129Z" transform="translate(17.557 190.783)" fill="#b33f4c"/>
      <path id="Path_15038" data-name="Path 15038" d="M-31.669,394.985c1-.818,2.276-2.656,3.885-3.023,5.821-1.33,11.743-2.239,17.658-3.1.885-.128,2.613.714,2.757,1.37.29,1.3.269,3.461-.535,4.077-6.08,4.663-12.824,7.817-20.752,7.174C-31.343,401.264-33.194,397.678-31.669,394.985Z" transform="translate(20.335 200.086)" fill="#b33f4c"/>
      <path id="Path_15039" data-name="Path 15039" d="M-30.816,397.37c6.824-1.057,12.807-1.986,19.062-2.956,1.31,3.538,1.424,6.444-2.178,7.821a89.209,89.209,0,0,1-14.157,4.4c-4.515.909-6.43-2.515-4.427-7.282A9.76,9.76,0,0,1-30.816,397.37Z" transform="translate(17.758 213.258)" fill="#b33f4c"/>
      <path id="Path_15040" data-name="Path 15040" d="M5.374,371.744c-8.844,1.188-15.894,2.1-22.583-1.269-.993-.5-1.683-2.3-1.8-3.569-.064-.717,1.2-2.081,2.067-2.279,6.8-1.565,13.315.155,19.671,2.357C3.673,367.31,4.057,369.28,5.374,371.744Z" transform="translate(51.581 141.332)" fill="#b33f4c"/>
      <path id="Path_15041" data-name="Path 15041" d="M7.615,359.927a21.249,21.249,0,0,1-3.623-3.02,3.477,3.477,0,0,1-.1-3.1c.431-.865,1.808-2.017,2.518-1.865,5.161,1.114,10.268,2.485,15.359,3.905a2.18,2.18,0,0,1,1.2,1.757,4.434,4.434,0,0,1-1.4,2.855C17.2,363.082,12.8,362,7.615,359.927Z" transform="translate(105.054 112.709)" fill="#b33f4c"/>
      <path id="Path_15042" data-name="Path 15042" d="M.836,355.014c4.663.831,7.942,1.333,11.184,2.023,1.666.357,2.6,3.394,1.559,4.612-2.047,2.4-4.656,3.05-8.1,1.586a10.612,10.612,0,0,1-4.42-3.165C.361,359.115.876,357.283.836,355.014Z" transform="translate(98.218 120.013)" fill="#b33f4c"/>
      <path id="Path_15043" data-name="Path 15043" d="M-18.088,419.026c1.347-1.508,2.168-2.905,3.383-3.68,1.99-1.266,4.228-1.717,6.366-.037,1.6,1.256,1.454,3.949-.431,6.053a15.488,15.488,0,0,1-2.559,2.269c-1.629,1.165-3.7,1.99-5.137.357C-17.519,422.789-17.58,420.719-18.088,419.026Z" transform="translate(53.779 260.12)" fill="#b33f4c"/>
      <path id="Path_15044" data-name="Path 15044" d="M-21.123,416.55c1.427-4.131,5.117-6.047,8.541-5.077,1.39.394,2.437,3.282,1.774,4.905a6.037,6.037,0,0,1-8.44,3.155C-20.281,418.981-20.7,417.271-21.123,416.55Z" transform="translate(46.596 253.045)" fill="#b33f4c"/>
      <path id="Path_15045" data-name="Path 15045" d="M16.719,356.589c-3.3-1.135-4.922-3.966-3.912-5.649a3.992,3.992,0,0,1,4.834-1.848c2.5.7,4.643,3.394,3.5,4.818C19.988,355.353,17.8,355.973,16.719,356.589Z" transform="translate(126.189 105.52)" fill="#b33f4c"/>
      <path id="Path_15046" data-name="Path 15046" d="M1.554,413.886c1.788,3.208,3.158,4.892,3.663,6.8.458,1.737-1.916,3.8-3.6,3.205-1.209-.428-3.01-1.916-2.912-2.744C-1.072,419.175.12,417.307,1.554,413.886Z" transform="translate(93.507 259.341)" fill="#b33f4c"/>
      <path id="Path_15047" data-name="Path 15047" d="M23.568,391.034c-3.377-1.161-4.777-3.528-3.478-5.437a4.069,4.069,0,0,1,3.623-1.054c1.828.539,3.343,2.124,2.434,4.252C25.686,389.869,24.211,390.505,23.568,391.034Z" transform="translate(142.997 189.685)" fill="#b33f4c"/>
      <path id="Path_15048" data-name="Path 15048" d="M19.73,348.773c1.569-.858,2.431-1.69,3.346-1.757a2.609,2.609,0,0,1,2.444,3.8c-.407.7-2.054,1.417-2.636,1.128C21.757,351.382,20.986,350.11,19.73,348.773Z" transform="translate(143.28 101.068)" fill="#b33f4c"/>
      <path id="Path_15049" data-name="Path 15049" d="M27.2,370.559c-.064,2.8.37,4.41-.249,5.272a4.089,4.089,0,0,1-3.474,1.448c-1.818-.488-1.626-2.33-.667-3.548C23.6,372.737,24.916,372.162,27.2,370.559Z" transform="translate(148.871 156.802)" fill="#b33f4c"/>
      <path id="Path_15050" data-name="Path 15050" d="M17.568,393.892c1.808.051,3.151-.2,4.225.236.525.212.552,1.677.8,2.575a16.874,16.874,0,0,1-3.922.65C18.352,397.34,18.11,395.663,17.568,393.892Z" transform="translate(138.164 211.965)" fill="#b33f4c"/>
      <path id="Path_15051" data-name="Path 15051" d="M24.124,347.331c1.852-.175,3.336-.626,3.555-.28a13.9,13.9,0,0,1,1.145,3.6c-.9.2-2.229.862-2.606.508C25.376,350.368,25.013,349.068,24.124,347.331Z" transform="translate(153.679 100.867)" fill="#b33f4c"/>
      <path id="Path_15052" data-name="Path 15052" d="M-4.578,416.526c1.4-.62,2.538-1.545,3.128-1.276a3.057,3.057,0,0,1,1.33,2.545c-.05.532-1.629,1.417-2.326,1.263C-3.174,418.9-3.669,417.68-4.578,416.526Z" transform="translate(85.752 262.455)" fill="#b33f4c"/>
      <path id="Path_15053" data-name="Path 15053" d="M12.319,414.3c-.01-1.737-.364-3.124.054-3.417.727-.515,1.932-.357,2.936-.478.03.717.357,1.673.017,2.1C14.807,413.158,13.827,413.447,12.319,414.3Z" transform="translate(125.388 251.108)" fill="#b33f4c"/>
      <path id="Path_15054" data-name="Path 15054" d="M29.115,381.718c-.108-3.114-.367-4.195-.108-4.34a10.464,10.464,0,0,1,2.683-.724c.067.609.394,1.373.145,1.8A27.291,27.291,0,0,1,29.115,381.718Z" transform="translate(164.972 171.229)" fill="#b33f4c"/>
      <path id="Path_15055" data-name="Path 15055" d="M-.124,404.986a13.313,13.313,0,0,1-1.926.047c-.108-.01-.158-.6-.236-.926a8.913,8.913,0,0,1,1.747,0C-.356,404.137-.265,404.669-.124,404.986Z" transform="translate(91.179 236.084)" fill="#b33f4c"/>
    </g>
  </g>
</svg>
