<svg xmlns="http://www.w3.org/2000/svg" width="23.9" height="12.429" viewBox="0 0 23.9 12.429">
  <g id="Group_9527" data-name="Group 9527" transform="translate(-29.75 -904.368)">
    <path id="Path_3931" data-name="Path 3931" d="M196.788,35.3h-6.574a.813.813,0,1,0,0,1.627h6.574a.783.783,0,0,0,.813-.813A.872.872,0,0,0,196.788,35.3Z" transform="translate(-159.4 877.722)" fill="#404040" stroke="#fff" stroke-width="0.5"/>
    <path id="Path_3932" data-name="Path 3932" d="M198.629,30.6h-5.015a.813.813,0,1,0,0,1.627h5.015a.813.813,0,1,0,0-1.627Z" transform="translate(-160.496 879.237)" fill="#404040" stroke="#fff" stroke-width="0.5"/>
    <path id="Path_3933" data-name="Path 3933" d="M201.415,26.613a.783.783,0,0,0-.813-.813h-3.389a.813.813,0,0,0,0,1.627H200.6A.824.824,0,0,0,201.415,26.613Z" transform="translate(-161.656 880.784)" fill="#404040" stroke="#fff" stroke-width="0.5"/>
    <path id="Path_3934" data-name="Path 3934" d="M216.847,23.51a1.669,1.669,0,0,0-1.288-.61h-9.218a1.688,1.688,0,0,0-1.694,1.491l-1.356,8.472a1.638,1.638,0,0,0,.407,1.356,1.669,1.669,0,0,0,1.288.61H214.2a1.688,1.688,0,0,0,1.694-1.491l1.355-8.472A1.708,1.708,0,0,0,216.847,23.51Zm-2.508,9.624c0,.068-.068.068-.136.068h-9.217a.066.066,0,0,1-.068-.068v-.068l1.356-8.472c0-.068.068-.068.136-.068h2.982l-.407,2.1a.645.645,0,0,0,.136.474.586.586,0,0,0,.407.2h1.9a.575.575,0,0,0,.542-.474l.407-2.3h3.321a.066.066,0,0,1,.068.068v.068Z" transform="translate(-163.872 881.718)" fill="#404040" stroke="#fff" stroke-width="0.5"/>
  </g>
</svg>
