<svg id="Group_9356" data-name="Group 9356" xmlns="http://www.w3.org/2000/svg" width="96.863" height="27.906" viewBox="0 0 96.863 27.906">
  <path id="Path_1789" data-name="Path 1789" d="M379.617,10.97c-.219-.985-.438-2.095-.7-3.2a6.412,6.412,0,0,0-.422-1.345c-.657-1.329-1.532-2.408-3.174-2.455-.829-.031-1.657-.063-2.5-.078-1.47-.031-2.126,1.032-2.658,2.142a17.326,17.326,0,0,0-1.047,5.206,18.405,18.405,0,0,0,.031,5.785,4.291,4.291,0,0,0,1.313,2.533c.641.563.938,1.485,1.861,1.751a8.563,8.563,0,0,0,5.144.36c-.078-1.36-.172-2.767-.25-4.081-.156-.094-.2-.156-.235-.141-1.329.391-2.58-.125-3.846-.344-.266-.047-.688-.313-.7-.5-.016-.328-.422-.719.109-1.079.328-.219.438-.735.688-1.173.578-.016.954-.3.7-1.047a6.387,6.387,0,0,1,4.925-.641c.766.25,1.579.313,2.33.563a1.482,1.482,0,0,1,1.063,1.345c.313,2.752.672,5.5.922,8.255a1.368,1.368,0,0,1-.7,1,42.8,42.8,0,0,1-4.065,1.8,12.087,12.087,0,0,1-4.393,1c-3.455-.031-6.3-1.188-8.317-4.143-1.548-2.267-1.548-4.847-1.657-7.395a20.737,20.737,0,0,1,.891-6.332A5.027,5.027,0,0,1,366.343,6.3a11.513,11.513,0,0,0,1.485-2.032,9.767,9.767,0,0,1,3.142-3.049c2.361-1.407,4.878-1.141,7.364-.969,1.72.109,2.83,1.438,3.815,2.783a3.836,3.836,0,0,0,.594.719,3.8,3.8,0,0,1,1.345,2.924c.031,1.063-.75,1.782-1.36,2.564-.141.172-.344.313-.391.5a.9.9,0,0,1-1.126.766c-.313-.047-.641-.078-.844.344C380.367,10.954,379.914,10.923,379.617,10.97Z" transform="translate(-307.102 -0.105)" fill="#da512e" fill-rule="evenodd"/>
  <path id="Path_1790" data-name="Path 1790" d="M9.751,17.29a26.388,26.388,0,0,0,8.567,6.832,1.941,1.941,0,0,0-.235-.016V26.78c-.016,1.329-.485,1.7-1.8,1.626a7.766,7.766,0,0,1-4.5-1.735c-1.657-1.3-3.361-2.548-5.175-3.909.2.891.36,1.735.563,2.548.172.7.391,1.407.594,2.095-.078.031-.172.047-.25.078L6.952,25.56H6.7a2.471,2.471,0,0,0-.078.876,2.514,2.514,0,0,1-.391,2.345,10.921,10.921,0,0,1-.985,1.094c-.109.125-.3.25-.313.391-.094.782-.625.766-1.2.719a1.53,1.53,0,0,0-.422.063A12.615,12.615,0,0,1,2.09,27.171c-.156-1.657-.453-3.3-.657-4.956q-.352-2.58-.563-5.206C.667,14.6.511,12.209.323,9.8a.462.462,0,0,0-.031-.2c-.782-1.688.016-3,.969-4.331.36-.5.735-.453,1.219-.391a1.214,1.214,0,0,0,.75-.047A8.407,8.407,0,0,1,8.422,3.751a6.15,6.15,0,0,1,5.05,3.3,6.049,6.049,0,0,1,1.157,3.033,6.373,6.373,0,0,1-2.658,5.3C11.2,15.945,10.517,16.633,9.751,17.29ZM6.092,7.784a4.252,4.252,0,0,0-1.3.453c-.141.109.063.672.125,1.032.016.094.016.172.031.266.219,1.688.438,3.393.657,5.081.141,1.047.266,1.266,1.235,1.329a1.874,1.874,0,0,0,1.188-.422,7,7,0,0,0,2.376-4.049,1.763,1.763,0,0,0-.188-1.266A5.227,5.227,0,0,0,6.092,7.784Z" transform="translate(0.025 -3.142)" fill="#da512e" fill-rule="evenodd"/>
  <path id="Path_1791" data-name="Path 1791" d="M522.886,25.165a3.1,3.1,0,0,0,.078-.641c-.016-.125-.141-.25-.219-.375-.109.078-.344.172-.328.235.094.876-.594,1.188-1.032,1.485a5.238,5.238,0,0,1-.016,1.016c-.141.61-.375,1.2-.485,1.814a3.8,3.8,0,0,1-1.814,2.376,11.3,11.3,0,0,1-5.222,1.97,6.147,6.147,0,0,1-5.019-1.7c-2.7-2.376-3.377-5.456-3.189-8.865.047-.829.125-1.657.125-2.486a15.855,15.855,0,0,1,.735-5.925,24.727,24.727,0,0,1,1-2.6c.188-.36.688-.563,1.063-.829.235-.172.469-.344.719-.516.672-.469.969-.453,1.532.156a3.663,3.663,0,0,1,.813,3.221,29.157,29.157,0,0,0-.375,6.05c0,1.016-.109,2.032-.062,3.033.094,1.626.109,3.3,1.454,4.565a3.841,3.841,0,0,0,3.049,1.016.828.828,0,0,0,.594-.422,13.679,13.679,0,0,0,1.329-5.581c-.078-2.408.109-4.815.141-7.223,0-.485-.187-.969-.187-1.454a2.054,2.054,0,0,1,.625-1.97,5.476,5.476,0,0,1,2.329-1.313.936.936,0,0,1,1.188.578,2.38,2.38,0,0,0,.844,1.047,1.433,1.433,0,0,1,.5.969c.141,1.72.235,3.44.3,5.159.063,1.595.078,3.189.063,4.8-.016.813-.172,1.61-.25,2.423A1.278,1.278,0,0,1,522.886,25.165Z" transform="translate(-426.561 -8.281)" fill="#da512e" fill-rule="evenodd"/>
  <path id="Path_1792" data-name="Path 1792" d="M254.747,34.3a5.539,5.539,0,0,1-.813-.782c-1.532-2.236-3.064-4.487-4.565-6.754-.516-.766-.954-1.579-1.548-2.361-.016.219-.031.453-.031.672-.031,1.829-.047,3.643-.125,5.472a6.583,6.583,0,0,1-.328,1.3c-.25,1-.453,2-.782,2.97a2.024,2.024,0,0,1-.844,1c-.86.516-1.8.938-2.845,1.454-.078-.469-.188-.86-.219-1.266a23.874,23.874,0,0,1,.61-5.863,9.1,9.1,0,0,0,.031-2.064,45.72,45.72,0,0,1,.516-8c.125-1.235.141-2.47.266-3.705a1.255,1.255,0,0,1,.422-.813,3.56,3.56,0,0,1,2.814-.672,2.332,2.332,0,0,1,1.094.688,33.938,33.938,0,0,1,4.44,6.269c.641,1.047,1.345,2.064,2.017,3.1.063-.016.141-.047.2-.063.063-1.094.125-2.173.172-3.268.031-1.188.031-2.392.063-3.58a7.008,7.008,0,0,1,.156-1,.586.586,0,0,1,.172.016c.047.125.094.266.188.532.031-.891-.031-1.688.938-2.032a15.788,15.788,0,0,0,1.939-.938,2.4,2.4,0,0,1,.766,1.892c.063,2.877.094,5.769.078,8.646a21.6,21.6,0,0,1-.219,3.768,22.737,22.737,0,0,1-1.11,3.6c-.063.188-.407.313-.641.406-.7.3-1.423.563-2.126.86a4.213,4.213,0,0,0-.594.3A1.46,1.46,0,0,0,254.747,34.3Zm.907-8.255c.078-.016.156-.016.235-.031V18.274c-.078,2.376-.281,4.753-.438,7.129A1.893,1.893,0,0,0,255.653,26.044Z" transform="translate(-204.682 -12.334)" fill="#da512e" fill-rule="evenodd"/>
  <path id="Path_1793" data-name="Path 1793" d="M134.032,24.932c.344.813.688,1.642,1.032,2.455-.078.047-.156.078-.235.125-.641-1.313-1.3-2.627-1.986-4.018-1.8,1.079-3.846,1.219-5.816,1.61a1.473,1.473,0,0,0-.641.5c-.25.25-.438.547-.672.829a1.883,1.883,0,0,0-.281.36,21.188,21.188,0,0,0-.625,2.158c-.156.719-.813.688-1.266.813-.922.25-1.407,0-1.5-.625a4.331,4.331,0,0,1-.078-1.345c.328-2.767.641-5.55,1.079-8.3.547-3.424,1.2-6.832,1.876-10.225a2.626,2.626,0,0,1,.844-1.235c.625-.578,1.235-1.251,2.251-.969A.779.779,0,0,0,128.607,7a1.014,1.014,0,0,1,1.423.235,13.087,13.087,0,0,1,2.752,4.049c1.047,2.392,2.189,4.737,3.268,7.114.86,1.907,1.657,3.83,2.47,5.753a3.6,3.6,0,0,1-.031,2.7c-.156.453-.766.75-1.2,1.063-.2.141-.594.281-.766.188a2.862,2.862,0,0,1-1.047-.876c-.469-.75-.829-1.579-1.235-2.376A.785.785,0,0,0,134.032,24.932Zm-6.144-3.815c1.282-.25,2.392-.469,3.486-.672-.8-2.267-1.548-4.44-2.314-6.6-.063,0-.125.016-.188.016C128.56,16.224,128.232,18.569,127.888,21.117Z" transform="translate(-102.869 -5.75)" fill="#da512e" fill-rule="evenodd"/>
</svg>
