<svg xmlns="http://www.w3.org/2000/svg" width="11.173" height="10.73" viewBox="0 0 11.173 10.73">
  <path id="Path_6247" data-name="Path 6247" d="M352.554,59.11a1.053,1.053,0,0,0-.855-.721l-2.576-.374-1.152-2.334a1.06,1.06,0,0,0-1.9,0l-1.152,2.334-2.576.374a1.06,1.06,0,0,0-.587,1.807l1.864,1.817-.44,2.566a1.06,1.06,0,0,0,1.537,1.117l2.3-1.211,2.3,1.211a1.06,1.06,0,0,0,1.537-1.117l-.44-2.566,1.864-1.817A1.053,1.053,0,0,0,352.554,59.11Z" transform="translate(-341.434 -55.09)" fill="#da512e"/>
</svg>
