<svg xmlns="http://www.w3.org/2000/svg" width="11.72" height="13.366" viewBox="0 0 11.72 13.366">
  <g id="Group_9525" data-name="Group 9525" transform="translate(-288.935 -270.672)">
    <path id="path" d="M6778.751,7448.278a6.47,6.47,0,0,1,1.328,1.892,5.453,5.453,0,0,1,.465,2.261,5.7,5.7,0,0,1-4.194,5.507,5.777,5.777,0,0,1-3.044,0,5.724,5.724,0,0,1,.743-11.17v-.873h-1.632v-.816h4.08v.816h-1.632v.816a5.787,5.787,0,0,1,1.722.261,5.447,5.447,0,0,1,1.56.816l1.329-1.322.57.571Zm-3.919,9.047a4.721,4.721,0,0,0,1.9-.383,4.955,4.955,0,0,0,2.611-2.611,4.888,4.888,0,0,0,0-3.8,4.954,4.954,0,0,0-2.611-2.611,4.894,4.894,0,0,0-3.8,0,4.964,4.964,0,0,0-2.61,2.611,4.9,4.9,0,0,0,0,3.8,4.964,4.964,0,0,0,2.612,2.612,4.747,4.747,0,0,0,1.9.4Zm2.448-4.9v.816h-3.264v-4.079h.816v3.263Z" transform="translate(-6480.04 -7174.257)" fill="#373737" stroke="#373737" stroke-width="0.3"/>
  </g>
</svg>
